# xmcd
# Track frame offsets:
# 182
# 19912
# 34615
# 51610
# 66787
# 83985
# 101747
# 121837
# 141162
#
# Disc length: 2201 seconds
# Revision: 0
# Processed by: cddbd v1.4PL0 Copyright (c) Steve Scherf et al.
# Submitted via: VisiTrax 2.9.5.180 - For more info visit www.synapsa.com
#
DISCID=7c089709
DTITLE=Tamra Rosanes - Tamra 22
DYEAR=1993
DGENRE=Country
TTITLE0=Night Mission
TTITLE1=On The Way
TTITLE2=What Love Can Do
TTITLE3=Summer Heats
TTITLE4=Secret
TTITLE5=Boys
TTITLE6=Romeo
TTITLE7=Time To Make Love
TTITLE8=Thief Of Love
EXTD=
EXTT0=
EXTT1=
EXTT2=
EXTT3=
EXTT4=
EXTT5=
EXTT6=
EXTT7=
EXTT8=
PLAYORDER=
